# procedura_core extrusion, +X east +Y north +Z up, metres
v 0.0000 0.0000 0.0000
v 28.0000 0.0000 0.0000
v 28.0000 0.0000 15.5000
v 0.0000 0.0000 15.5000
v 28.0000 0.0000 0.0000
v 28.0000 16.0000 0.0000
v 28.0000 16.0000 15.5000
v 28.0000 0.0000 15.5000
v 28.0000 16.0000 0.0000
v 12.0000 16.0000 0.0000
v 12.0000 16.0000 15.5000
v 28.0000 16.0000 15.5000
v 12.0000 16.0000 0.0000
v 12.0000 30.0000 0.0000
v 12.0000 30.0000 15.5000
v 12.0000 16.0000 15.5000
v 12.0000 30.0000 0.0000
v 0.0000 30.0000 0.0000
v 0.0000 30.0000 15.5000
v 12.0000 30.0000 15.5000
v 0.0000 30.0000 0.0000
v 0.0000 0.0000 0.0000
v 0.0000 0.0000 15.5000
v 0.0000 30.0000 15.5000
v 0.0000 0.0000 15.5000
v 28.0000 0.0000 15.5000
v 28.0000 16.0000 15.5000
v 12.0000 16.0000 15.5000
v 12.0000 30.0000 15.5000
v 0.0000 30.0000 15.5000
g wall_0
f 1 2 3 4
g wall_1
f 5 6 7 8
g wall_2
f 9 10 11 12
g wall_3
f 13 14 15 16
g wall_4
f 17 18 19 20
g wall_5
f 21 22 23 24
g roof_flat
f 25 26 27 28 29 30
